<svg width="1885" height="165" viewBox="0 0 1885 165" fill="none" xmlns="http://www.w3.org/2000/svg">
<path d="M125.175 108.502L149.599 137.177L163.657 162.019H102.194L71.4458 108.502H125.175Z" fill="black"/>
<path d="M163.641 162.028L194.338 108.511L132.892 1.45273H71.4458L163.641 162.028Z" fill="black"/>
<path d="M40.7234 54.9551H102.17L40.749 162.014L10.0005 108.497L40.7234 54.9551Z" fill="black"/>
<path d="M314.956 52.566L313.411 69.3428C306.79 56.3187 291.56 49.2548 275.228 49.2548C244.549 49.2548 224.022 71.5503 224.022 105.766C224.022 139.761 242.562 164.485 275.007 164.485C292.664 164.485 305.686 155.876 312.528 144.618L314.294 161.615H339.455V52.566H314.956ZM312.087 107.091C312.087 126.737 299.948 140.203 281.187 140.203C262.426 140.203 250.949 126.516 250.949 107.091C250.949 87.6648 262.647 73.7577 281.408 73.7577C300.168 73.7577 312.087 87.444 312.087 107.091Z" fill="black"/>
<path d="M385.27 161.615V132.256L401.161 115.7L429.633 161.615H460.533L419.922 95.8324L461.416 52.566H427.647L385.27 98.2607V0.590759H358.564V161.615H385.27Z" fill="black"/>
<path d="M550.96 52.566L549.415 69.3428C542.793 56.3187 527.564 49.2548 511.231 49.2548C480.552 49.2548 460.026 71.5503 460.026 105.766C460.026 139.761 478.566 164.485 511.011 164.485C528.668 164.485 541.69 155.876 548.532 144.618L550.297 161.615H575.459V52.566H550.96ZM548.09 107.091C548.09 126.737 535.951 140.203 517.191 140.203C498.43 140.203 486.953 126.516 486.953 107.091C486.953 87.6648 498.651 73.7577 517.411 73.7577C536.172 73.7577 548.09 87.444 548.09 107.091Z" fill="black"/>
<path d="M589.085 128.503C589.085 149.915 606.3 164.485 633.448 164.485C660.375 164.485 679.136 150.798 679.136 128.724C679.136 111.947 669.866 103.559 651.546 99.3644L631.903 94.7287C622.633 92.5212 617.777 88.5478 617.777 82.3669C617.777 74.1992 623.957 69.3428 634.551 69.3428C644.925 69.3428 651.105 75.303 651.326 84.5743H676.928C676.708 63.3826 660.154 49.2548 635.655 49.2548C610.494 49.2548 592.395 62.0581 592.395 83.4706C592.395 100.91 601.886 110.181 621.529 114.596L641.173 119.232C650.884 121.439 653.754 125.413 653.754 130.931C653.754 138.878 646.911 143.955 634.331 143.955C621.971 143.955 614.908 137.995 614.687 128.503H589.085Z" fill="black"/>
<path d="M721.064 161.615V102.013C721.064 85.6781 730.996 73.7577 747.991 73.7577C761.675 73.7577 770.724 82.5876 770.724 100.91V161.615H797.651V94.5079C797.651 66.2523 783.525 49.2548 756.598 49.2548C740.928 49.2548 728.126 56.098 721.284 66.6938V0.590759H694.137V161.615H721.064Z" fill="black"/>
<path d="M824.399 108.526C824.399 142.146 844.534 164.485 874.195 164.485C898.01 164.485 916.629 150.108 921.609 128.211H906.454C902.34 141.924 889.783 150.772 874.195 150.772C852.978 150.772 839.122 133.741 839.122 108.305C839.122 81.9848 854.06 65.3963 875.277 65.3963C889.783 65.3963 902.34 73.58 906.237 88.399H921.176C917.062 66.2811 899.309 51.9044 875.061 51.9044C844.534 51.9044 824.399 74.9071 824.399 108.526Z" fill="#A3A3A3"/>
<path d="M932.549 108.305C932.549 140.819 955.065 164.485 985.809 164.485C1016.55 164.485 1039.07 140.819 1039.07 108.305C1039.07 75.5706 1016.55 51.9044 985.809 51.9044C955.065 51.9044 932.549 75.5706 932.549 108.305ZM947.704 108.084C947.704 83.3119 963.292 65.6175 985.809 65.6175C1008.11 65.6175 1023.91 83.3119 1023.91 108.084C1023.91 133.298 1008.11 150.772 985.809 150.772C963.292 150.772 947.704 133.298 947.704 108.084Z" fill="#A3A3A3"/>
<path d="M1073.57 161.831V105.872C1073.57 81.7636 1085.69 65.8387 1107.13 65.8387C1124.45 65.8387 1135.49 74.6859 1135.49 99.6792V161.831H1150.43V96.3615C1150.43 69.3776 1138.52 51.9044 1109.73 51.9044C1094.57 51.9044 1080.71 59.6457 1073.79 73.3588L1071.62 54.7797H1058.63V161.831H1073.57Z" fill="#A3A3A3"/>
<path d="M1165.73 131.75C1165.73 151.656 1180.45 164.485 1204.05 164.485C1227.86 164.485 1243.88 151.878 1243.88 132.635C1243.88 117.152 1235.66 108.526 1217.47 103.882L1199.5 99.2368C1188.03 96.3615 1182.4 90.6108 1182.4 82.4272C1182.4 70.9258 1190.62 64.5116 1205.35 64.5116C1219.42 64.5116 1227.86 71.8106 1228.3 84.1966H1242.8C1242.15 64.2904 1227.86 51.9044 1205.78 51.9044C1183.26 51.9044 1167.89 63.8481 1167.89 82.6483C1167.89 97.2462 1176.77 106.978 1194.95 111.623L1212.92 116.268C1225.27 119.364 1229.6 124.451 1229.6 133.298C1229.6 144.8 1220.07 151.878 1203.83 151.878C1189.11 151.878 1180.02 144.136 1180.02 131.75H1165.73Z" fill="#A3A3A3"/>
<path d="M1256.79 108.305C1256.79 140.819 1279.3 164.485 1310.05 164.485C1340.79 164.485 1363.31 140.819 1363.31 108.305C1363.31 75.5706 1340.79 51.9044 1310.05 51.9044C1279.3 51.9044 1256.79 75.5706 1256.79 108.305ZM1271.94 108.084C1271.94 83.3119 1287.53 65.6175 1310.05 65.6175C1332.35 65.6175 1348.15 83.3119 1348.15 108.084C1348.15 133.298 1332.35 150.772 1310.05 150.772C1287.53 150.772 1271.94 133.298 1271.94 108.084Z" fill="#A3A3A3"/>
<path d="M1398.46 161.831V0.590759H1383.52V161.831H1398.46Z" fill="#A3A3A3"/>
<path d="M1469.85 164.485C1494.53 164.485 1510.77 152.32 1516.4 129.76H1502.11C1498.21 143.915 1487.17 151.435 1470.06 151.435C1447.55 151.435 1434.13 136.395 1433.04 110.296H1516.4V102.776C1516.4 72.4741 1497.13 51.9044 1468.77 51.9044C1438.89 51.9044 1418.54 74.9071 1418.54 108.305C1418.54 141.924 1439.1 164.485 1469.85 164.485ZM1468.77 64.954C1488.47 64.954 1501.46 78.6671 1501.46 99.2368H1433.48C1436.07 78.2248 1449.06 64.954 1468.77 64.954Z" fill="#A3A3A3"/>
<rect x="1539.88" width="297" height="164" rx="77.3714" fill="black"/>
<path d="M1724.73 132.455C1723.42 132.455 1722.91 131.847 1723.19 130.633L1736.5 74.7121C1736.97 72.6566 1737.01 71.0682 1736.64 69.947C1736.36 68.7323 1735.52 68.125 1734.12 68.125C1732.44 68.125 1730.57 69.3864 1728.51 71.9091C1726.55 74.3384 1724.31 79.0101 1721.78 85.9243C1721.41 87.1389 1720.76 87.7462 1719.82 87.7462C1718.42 87.7462 1718.05 86.9053 1718.7 85.2235C1720.76 78.7765 1722.91 73.7311 1725.15 70.0871C1727.48 66.4432 1729.82 63.8738 1732.16 62.3788C1734.49 60.8839 1736.64 60.1364 1738.6 60.1364C1741.69 60.1364 1743.88 61.3043 1745.19 63.6402C1746.5 65.8826 1746.54 69.62 1745.33 74.8523L1743.79 81.4394C1743.69 82.0934 1743.84 82.4672 1744.21 82.5606C1744.58 82.6541 1744.91 82.4205 1745.19 81.8599C1748.74 73.7311 1751.96 68.0783 1754.86 64.9015C1757.76 61.7248 1761.07 60.1364 1764.81 60.1364C1767.33 60.1364 1769.2 60.8371 1770.42 62.2387C1771.73 63.5467 1772.38 65.3687 1772.38 67.7046C1772.38 70.0404 1771.82 71.9091 1770.7 73.3106C1769.58 74.7121 1768.13 75.4129 1766.35 75.4129C1764.86 75.4129 1763.78 75.0392 1763.13 74.2917C1762.48 73.5442 1761.96 72.7033 1761.59 71.7689C1761.31 70.7412 1760.98 69.8536 1760.61 69.1061C1760.23 68.3586 1759.63 67.9849 1758.78 67.9849C1757.38 67.9849 1755.56 69.7601 1753.32 73.3106C1751.08 76.8611 1748.65 81.673 1746.03 87.7462C1743.51 93.726 1741.03 100.453 1738.6 107.928C1736.27 115.403 1734.21 123.064 1732.44 130.913C1732.16 131.941 1731.5 132.455 1730.47 132.455H1724.73Z" fill="white"/>
<path d="M1703.97 47.6629C1702.2 47.6629 1700.7 47.0556 1699.49 45.8409C1698.37 44.5328 1697.81 42.9912 1697.81 41.2159C1697.81 38.6932 1698.55 36.6844 1700.05 35.1894C1701.64 33.6945 1703.41 32.947 1705.38 32.947C1707.24 32.947 1708.79 33.5543 1710 34.769C1711.31 35.8902 1711.96 37.3851 1711.96 39.2538C1711.96 41.87 1711.17 43.9255 1709.58 45.4205C1707.99 46.9154 1706.12 47.6629 1703.97 47.6629ZM1692.48 133.856C1689.4 133.856 1687.2 132.735 1685.89 130.492C1684.59 128.157 1684.54 124.372 1685.75 119.14L1696.13 74.7121C1696.59 72.6566 1696.64 71.0682 1696.27 69.947C1695.98 68.7323 1695.14 68.125 1693.74 68.125C1692.06 68.125 1690.19 69.3864 1688.14 71.9091C1686.17 74.3384 1683.93 79.0101 1681.41 85.9242C1681.04 87.1389 1680.38 87.7462 1679.45 87.7462C1678.05 87.7462 1677.67 86.9053 1678.33 85.2235C1680.38 78.7765 1682.53 73.7311 1684.77 70.0871C1687.11 66.4432 1689.44 63.8737 1691.78 62.3788C1694.12 60.8838 1696.27 60.1364 1698.23 60.1364C1701.5 60.1364 1703.79 61.3043 1705.09 63.6402C1706.4 65.8826 1706.45 69.62 1705.23 74.8523L1694.86 119.28C1694.4 121.336 1694.3 122.971 1694.58 124.186C1694.96 125.307 1695.84 125.867 1697.25 125.867C1698.93 125.867 1700.75 124.653 1702.71 122.223C1704.77 119.701 1707.06 114.982 1709.58 108.068C1709.95 106.854 1710.61 106.246 1711.54 106.246C1712.94 106.246 1713.32 107.087 1712.66 108.769C1710.7 115.122 1708.51 120.168 1706.08 123.905C1703.74 127.549 1701.4 130.119 1699.07 131.614C1696.73 133.109 1694.54 133.856 1692.48 133.856Z" fill="white"/>
<path d="M1606.06 132.455C1604.94 132.455 1604.38 131.987 1604.38 131.053C1604.38 130.212 1605.13 129.605 1606.62 129.231L1608.86 128.811C1610.73 128.437 1612.37 127.549 1613.77 126.148C1615.08 124.653 1616.34 122.597 1617.55 119.981L1659.46 32.3864C1659.93 31.452 1660.39 30.8447 1660.86 30.5644C1661.33 30.2841 1661.75 30.144 1662.12 30.144C1662.59 30.144 1662.96 30.2841 1663.24 30.5644C1663.62 30.8447 1663.8 31.452 1663.8 32.3864L1665.35 121.242C1665.44 123.859 1665.77 125.681 1666.33 126.708C1666.89 127.643 1668.05 128.343 1669.83 128.811L1671.65 129.231C1672.77 129.511 1673.33 130.072 1673.33 130.913C1673.33 131.941 1672.54 132.455 1670.95 132.455H1647.83C1646.61 132.455 1646 131.987 1646 131.053C1646 130.025 1646.94 129.418 1648.81 129.231L1651.61 128.951C1653.2 128.764 1654.27 128.25 1654.83 127.409C1655.49 126.568 1655.81 125.12 1655.81 123.064L1655.53 101.341C1655.53 98.9116 1654.27 97.6969 1651.75 97.6969H1636.75C1634.33 97.6969 1632.5 98.9116 1631.29 101.341L1622.18 120.121C1619.66 125.447 1620.5 128.39 1624.7 128.951L1626.66 129.231C1628.06 129.418 1628.77 129.978 1628.77 130.913C1628.77 131.941 1627.97 132.455 1626.38 132.455H1606.06ZM1637.31 93.4924H1653.01C1654.6 93.4924 1655.39 92.6982 1655.39 91.1098L1655.11 52.8485H1654.41L1636.05 91.1098C1635.68 91.7639 1635.63 92.3245 1635.91 92.7916C1636.19 93.2588 1636.66 93.4924 1637.31 93.4924Z" fill="white"/>
</svg>
