<svg width="1885" height="165" viewBox="0 0 1885 165" fill="none" xmlns="http://www.w3.org/2000/svg">
<path d="M125.175 108.117L149.599 136.792L163.657 161.634H102.194L71.4458 108.117H125.175Z" fill="white"/>
<path d="M163.641 161.643L194.338 108.126L132.892 1.06775H71.4458L163.641 161.643Z" fill="white"/>
<path d="M40.7234 54.5701H102.17L40.749 161.629L10.0005 108.112L40.7234 54.5701Z" fill="white"/>
<path d="M314.956 52.1811L313.411 68.9578C306.79 55.9338 291.56 48.8699 275.228 48.8699C244.549 48.8699 224.022 71.1653 224.022 105.381C224.022 139.376 242.562 164.1 275.007 164.1C292.664 164.1 305.686 155.491 312.528 144.233L314.294 161.23H339.455V52.1811H314.956ZM312.087 106.706C312.087 126.352 299.948 139.818 281.187 139.818C262.426 139.818 250.949 126.131 250.949 106.706C250.949 87.2798 262.647 73.3728 281.408 73.3728C300.168 73.3728 312.087 87.0591 312.087 106.706Z" fill="white"/>
<path d="M385.27 161.23V131.871L401.161 115.315L429.633 161.23H460.533L419.922 95.4475L461.416 52.1811H427.647L385.27 97.8757V0.205811H358.564V161.23H385.27Z" fill="white"/>
<path d="M550.96 52.1811L549.415 68.9578C542.793 55.9338 527.564 48.8699 511.231 48.8699C480.552 48.8699 460.026 71.1653 460.026 105.381C460.026 139.376 478.566 164.1 511.011 164.1C528.668 164.1 541.69 155.491 548.532 144.233L550.297 161.23H575.459V52.1811H550.96ZM548.09 106.706C548.09 126.352 535.951 139.818 517.191 139.818C498.43 139.818 486.953 126.131 486.953 106.706C486.953 87.2798 498.651 73.3728 517.411 73.3728C536.172 73.3728 548.09 87.0591 548.09 106.706Z" fill="white"/>
<path d="M589.085 128.118C589.085 149.53 606.3 164.1 633.448 164.1C660.375 164.1 679.136 150.413 679.136 128.339C679.136 111.562 669.866 103.174 651.546 98.9794L631.903 94.3438C622.633 92.1363 617.777 88.1628 617.777 81.9819C617.777 73.8143 623.957 68.9578 634.551 68.9578C644.925 68.9578 651.105 74.918 651.326 84.1894H676.928C676.708 62.9977 660.154 48.8699 635.655 48.8699C610.494 48.8699 592.395 61.6732 592.395 83.0857C592.395 100.525 601.886 109.796 621.529 114.211L641.173 118.847C650.884 121.054 653.754 125.028 653.754 130.546C653.754 138.493 646.911 143.57 634.331 143.57C621.971 143.57 614.908 137.61 614.687 128.118H589.085Z" fill="white"/>
<path d="M721.064 161.23V101.628C721.064 85.2931 730.996 73.3728 747.991 73.3728C761.675 73.3728 770.724 82.2027 770.724 100.525V161.23H797.651V94.123C797.651 65.8674 783.525 48.8699 756.598 48.8699C740.928 48.8699 728.126 55.713 721.284 66.3089V0.205811H694.137V161.23H721.064Z" fill="white"/>
<path d="M824.399 108.141C824.399 141.761 844.534 164.1 874.195 164.1C898.01 164.1 916.629 149.723 921.609 127.826H906.454C902.34 141.539 889.783 150.387 874.195 150.387C852.978 150.387 839.122 133.356 839.122 107.92C839.122 81.5998 854.06 65.0114 875.277 65.0114C889.783 65.0114 902.34 73.195 906.237 88.0141H921.176C917.062 65.8961 899.309 51.5195 875.061 51.5195C844.534 51.5195 824.399 74.5221 824.399 108.141Z" fill="#A3A3A3"/>
<path d="M932.549 107.92C932.549 140.434 955.065 164.1 985.809 164.1C1016.55 164.1 1039.07 140.434 1039.07 107.92C1039.07 75.1856 1016.55 51.5195 985.809 51.5195C955.065 51.5195 932.549 75.1856 932.549 107.92ZM947.704 107.699C947.704 82.9269 963.292 65.2326 985.809 65.2326C1008.11 65.2326 1023.91 82.9269 1023.91 107.699C1023.91 132.913 1008.11 150.387 985.809 150.387C963.292 150.387 947.704 132.913 947.704 107.699Z" fill="#A3A3A3"/>
<path d="M1073.57 161.446V105.487C1073.57 81.3787 1085.69 65.4538 1107.13 65.4538C1124.45 65.4538 1135.49 74.3009 1135.49 99.2942V161.446H1150.43V95.9765C1150.43 68.9926 1138.52 51.5195 1109.73 51.5195C1094.57 51.5195 1080.71 59.2607 1073.79 72.9739L1071.62 54.3948H1058.63V161.446H1073.57Z" fill="#A3A3A3"/>
<path d="M1165.73 131.365C1165.73 151.271 1180.45 164.1 1204.05 164.1C1227.86 164.1 1243.88 151.493 1243.88 132.25C1243.88 116.767 1235.66 108.141 1217.47 103.497L1199.5 98.8519C1188.03 95.9765 1182.4 90.2259 1182.4 82.0422C1182.4 70.5409 1190.62 64.1267 1205.35 64.1267C1219.42 64.1267 1227.86 71.4256 1228.3 83.8116H1242.8C1242.15 63.9055 1227.86 51.5195 1205.78 51.5195C1183.26 51.5195 1167.89 63.4631 1167.89 82.2634C1167.89 96.8612 1176.77 106.593 1194.95 111.238L1212.92 115.883C1225.27 118.979 1229.6 124.066 1229.6 132.913C1229.6 144.415 1220.07 151.493 1203.83 151.493C1189.11 151.493 1180.02 143.751 1180.02 131.365H1165.73Z" fill="#A3A3A3"/>
<path d="M1256.79 107.92C1256.79 140.434 1279.3 164.1 1310.05 164.1C1340.79 164.1 1363.31 140.434 1363.31 107.92C1363.31 75.1856 1340.79 51.5195 1310.05 51.5195C1279.3 51.5195 1256.79 75.1856 1256.79 107.92ZM1271.94 107.699C1271.94 82.9269 1287.53 65.2326 1310.05 65.2326C1332.35 65.2326 1348.15 82.9269 1348.15 107.699C1348.15 132.913 1332.35 150.387 1310.05 150.387C1287.53 150.387 1271.94 132.913 1271.94 107.699Z" fill="#A3A3A3"/>
<path d="M1398.46 161.446V0.205811H1383.52V161.446H1398.46Z" fill="#A3A3A3"/>
<path d="M1469.85 164.1C1494.53 164.1 1510.77 151.935 1516.4 129.375H1502.11C1498.21 143.53 1487.17 151.05 1470.06 151.05C1447.55 151.05 1434.13 136.01 1433.04 109.911H1516.4V102.391C1516.4 72.0891 1497.13 51.5195 1468.77 51.5195C1438.89 51.5195 1418.54 74.5221 1418.54 107.92C1418.54 141.539 1439.1 164.1 1469.85 164.1ZM1468.77 64.569C1488.47 64.569 1501.46 78.2822 1501.46 98.8519H1433.48C1436.07 77.8398 1449.06 64.569 1468.77 64.569Z" fill="#A3A3A3"/>
<rect x="1539.88" y="0.61499" width="297" height="163" rx="77.3714" fill="white"/>
<path d="M1728.3 137.525C1726.86 137.525 1726.3 136.858 1726.6 135.524L1741.23 74.1113C1741.74 71.8539 1741.79 70.1095 1741.38 68.8781C1741.07 67.5442 1740.15 66.8772 1738.61 66.8772C1736.76 66.8772 1734.71 68.2625 1732.45 71.033C1730.3 73.7009 1727.84 78.8314 1725.07 86.4246C1724.65 87.7586 1723.94 88.4255 1722.91 88.4255C1721.37 88.4255 1720.96 87.502 1721.68 85.655C1723.94 78.5749 1726.3 73.0339 1728.76 69.0321C1731.32 65.0302 1733.89 62.2084 1736.46 60.5667C1739.02 58.9249 1741.38 58.104 1743.54 58.104C1746.92 58.104 1749.33 59.3866 1750.77 61.9519C1752.21 64.4146 1752.26 68.519 1750.92 74.2652L1749.23 81.4993C1749.13 82.2176 1749.28 82.628 1749.69 82.7306C1750.1 82.8332 1750.46 82.5767 1750.77 81.961C1754.67 73.0339 1758.21 66.8259 1761.39 63.3372C1764.57 59.8484 1768.21 58.104 1772.32 58.104C1775.09 58.104 1777.14 58.8736 1778.47 60.4127C1779.91 61.8493 1780.63 63.8502 1780.63 66.4155C1780.63 68.9808 1780.01 71.033 1778.78 72.5721C1777.55 74.1113 1775.96 74.8809 1774.01 74.8809C1772.37 74.8809 1771.19 74.4704 1770.47 73.6496C1769.75 72.8287 1769.19 71.9052 1768.78 70.8791C1768.47 69.7503 1768.11 68.7755 1767.7 67.9547C1767.29 67.1338 1766.62 66.7233 1765.7 66.7233C1764.16 66.7233 1762.16 68.6729 1759.7 72.5721C1757.23 76.4714 1754.57 81.7558 1751.69 88.4255C1748.92 94.9926 1746.2 102.381 1743.54 110.589C1740.97 118.798 1738.71 127.212 1736.76 135.832C1736.46 136.96 1735.74 137.525 1734.61 137.525H1728.3Z" fill="black"/>
<path d="M1705.5 44.4054C1703.56 44.4054 1701.91 43.7384 1700.58 42.4044C1699.35 40.9679 1698.73 39.2748 1698.73 37.3252C1698.73 34.5547 1699.55 32.3486 1701.19 30.7068C1702.94 29.065 1704.89 28.2441 1707.04 28.2441C1709.1 28.2441 1710.79 28.9111 1712.12 30.2451C1713.56 31.4764 1714.28 33.1182 1714.28 35.1704C1714.28 38.0435 1713.41 40.3009 1711.66 41.9427C1709.92 43.5845 1707.86 44.4054 1705.5 44.4054ZM1692.88 139.064C1689.5 139.064 1687.09 137.833 1685.65 135.37C1684.21 132.805 1684.16 128.649 1685.5 122.903L1696.89 74.1112C1697.4 71.8538 1697.45 70.1094 1697.04 68.8781C1696.73 67.5441 1695.81 66.8771 1694.27 66.8771C1692.42 66.8771 1690.37 68.2624 1688.11 71.0329C1685.96 73.7008 1683.49 78.8313 1680.72 86.4245C1680.31 87.7585 1679.6 88.4254 1678.57 88.4254C1677.03 88.4254 1676.62 87.5019 1677.34 85.6549C1679.6 78.5748 1681.96 73.0338 1684.42 69.032C1686.98 65.0301 1689.55 62.2083 1692.11 60.5666C1694.68 58.9248 1697.04 58.1039 1699.19 58.1039C1702.79 58.1039 1705.3 59.3865 1706.74 61.9518C1708.17 64.4145 1708.22 68.5189 1706.89 74.2651L1695.5 123.057C1694.99 125.314 1694.88 127.11 1695.19 128.444C1695.6 129.675 1696.58 130.291 1698.12 130.291C1699.96 130.291 1701.96 128.957 1704.12 126.289C1706.38 123.518 1708.89 118.336 1711.66 110.743C1712.07 109.409 1712.79 108.742 1713.82 108.742C1715.36 108.742 1715.77 109.666 1715.05 111.513C1712.89 118.49 1710.48 124.031 1707.81 128.136C1705.25 132.138 1702.68 134.959 1700.12 136.601C1697.55 138.243 1695.14 139.064 1692.88 139.064Z" fill="black"/>
<path d="M1597.98 137.525C1596.75 137.525 1596.13 137.012 1596.13 135.986C1596.13 135.062 1596.95 134.395 1598.59 133.985L1601.05 133.523C1603.11 133.113 1604.9 132.138 1606.44 130.599C1607.88 128.957 1609.26 126.699 1610.6 123.826L1656.62 27.6285C1657.13 26.6024 1657.64 25.9355 1658.16 25.6276C1658.67 25.3198 1659.13 25.1659 1659.54 25.1659C1660.06 25.1659 1660.47 25.3198 1660.77 25.6276C1661.18 25.9355 1661.39 26.6024 1661.39 27.6285L1663.08 125.211C1663.19 128.085 1663.54 130.086 1664.16 131.214C1664.78 132.24 1666.06 133.01 1668.01 133.523L1670.01 133.985C1671.24 134.293 1671.86 134.908 1671.86 135.832C1671.86 136.96 1670.98 137.525 1669.24 137.525H1643.84C1642.51 137.525 1641.84 137.012 1641.84 135.986C1641.84 134.857 1642.87 134.19 1644.92 133.985L1648 133.677C1649.74 133.472 1650.92 132.907 1651.54 131.984C1652.26 131.06 1652.62 129.47 1652.62 127.212L1652.31 103.355C1652.31 100.687 1650.92 99.3536 1648.15 99.3536H1631.68C1629.02 99.3536 1627.02 100.687 1625.68 103.355L1615.68 123.98C1612.91 129.829 1613.83 133.061 1618.45 133.677L1620.6 133.985C1622.14 134.19 1622.91 134.806 1622.91 135.832C1622.91 136.96 1622.04 137.525 1620.29 137.525H1597.98ZM1632.3 94.7361H1649.54C1651.28 94.7361 1652.15 93.8639 1652.15 92.1195L1651.85 50.1003H1651.08L1630.91 92.1195C1630.5 92.8378 1630.45 93.4534 1630.76 93.9665C1631.07 94.4795 1631.58 94.7361 1632.3 94.7361Z" fill="black"/>
</svg>
